/* XPM */
static char *ciaoscrt[]={
"24 24 59 1",
"h c None",
"4 c #0c0c0c",
"2 c #200020",
"z c #202020",
"H c #242424",
"1 c #281828",
"N c #303030",
"3 c #380038",
"C c #404040",
"A c #525252",
"y c #585858",
"F c #600060",
"m c #606060",
"n c #626262",
"E c #701070",
"s c #747474",
"G c #784878",
"P c #7f7f00",
"U c #7f7f20",
"O c #7f7f3f",
"x c #7f7f7f",
"d c #800080",
"D c #800880",
"u c #802080",
"c c #804880",
"b c #806080",
"I c #871087",
". c #878787",
"Q c #8f208f",
"a c #8f7f8f",
"Z c #903090",
"f c #929292",
"L c #973097",
"q c #975097",
"e c #979797",
"r c #989898",
"k c #9f3f9f",
"p c #9f409f",
"T c #9f9f10",
"# c #9f9f9f",
"Y c #a060a0",
"J c #af7faf",
"X c #af80af",
"M c #b770b7",
"j c #bf7fbf",
"K c #bfbf00",
"v c #bfbfbf",
"t c #c78fc7",
"g c #cecece",
"o c #cf9fcf",
"0 c #cfcfcf",
"w c #dbdbdb",
"B c #dfbfdf",
"l c #dfdfdf",
"W c #e7cfe7",
"R c #efdfef",
"V c #efef00",
"S c #ffff00",
"i c #ffffff",
".######abcddddcba#efghhh",
"#iiiiijkddddddddkjlmnhhh",
"#iiiopddddddddddddqrsmhh",
"#iitdddddddddddddduvwsng",
"#iodddddddkjjkdddduxxyzA",
"#ipdddddtBaCCaBtddDEFFGH",
"#jddddIJvixKKxivJIddLMlN",
"akddddJOP#xKKx#POJQjRilN",
"bddddtvPSTUVVUTSPvWiiilN",
"cddddBi#TSSSSSST#iiiiilN",
"ddddkaxxUSSSSSSUxx#iiilN",
"ddddjCKKVSSSSSSVKKCiiilN",
"ddddjCKKVSSSSSSVKKCiiilN",
"ddddkaxxUSSSSSSUxx#iiilN",
"cddddBi#TSSSSSST#iiiiilN",
"bddddtvPSTUVVUTSPvWiiilN",
"akddddJOP#xKKx#POJQjRilN",
"#jddddIJvixKKxivJIddLilN",
"#ipdddddtBaCCaBtdddddIXN",
"#iodddddddkjjkdddddddolN",
"#iitddddddddddddddddtilN",
"#iiiopddddddddddddpoiilN",
"elllllYZddddddddZYllll0N",
"HNNNNNN123dddd321NNNNNN4"};
