/* XPM */
static char *ciao[]={
"56 24 14 1",
". c None",
"k c #260c33",
"l c #373737",
"b c #4c1966",
"a c #5d436a",
"f c #654c33",
"# c #6e6e6e",
"e c #722599",
"h c #767637",
"g c #7f7f00",
"d c #9932cc",
"c c #a5a5a5",
"j c #bfbf00",
"i c #ffff00",
"........................................................",
"........................................................",
"........#abbbba#........................................",
"......cbddddddddbc......................................",
".....aeddddddddddea.....................................",
"....addddddddddddda.....................................",
"...cedddddddddddda......................................",
"...bdddddb####bfggh.......#bbbbb#..........chgggghc.....",
"..#ddddda.....#iiii#....cbdddddddbc.......hjiiiiiijh....",
"..addddb......#iiii#...cedddddddddec.....hiiiiiiiiiih...",
"..bdddd#......#iiii#...bdddddddddddb....#iiiiiiiiiiii#..",
"..bdddd#.......hggh...#ddddddddddddd#...giiiiiiiiiiiig..",
"..bdddd#..............bddddegggeddddb..#iiiiifbbfiiiii#.",
"..bdddd#..............bddddgiiigddddb..#iiiigddddgiiii#.",
"..addddb......c#####..bddddgiiigddddbc.#iiiigddddgiiii#.",
"..#ddddda.....#iiiig..bddddgiiigddddd#.#iiiigddddgiiii#.",
"...bdddddb####kiiiiih#bddddegggeddddde#liiiiifbbfiiiii#.",
"...ceddddddddddgiiiiiigdddddddddddddddddgiiiiiiiiiiiig..",
"....addddddddddbiiiiiiibddddddddddddddddbiiiiiiiiiiii#..",
".....aedddddddddfiiiiiijeddddddddddddddddfiiiiiiiiiih...",
"......cbddddddddbhjiiiiijbdddddddb#bddddddfjiiiiiijh....",
"........#abbbba#..chgggghc#bbbbb#...#bbbbb#chgggghc.....",
"........................................................",
"........................................................"};
