/* XPM */
static char * ciaoanalysis_xpm[] = {
"24 24 19 1",
" 	c None",
".	c #D0C0D0",
"+	c #C5A5C5",
"@	c #B37CB3",
"#	c #800080",
"$	c #AE6EAE",
"%	c #973797",
"&	c #B989B9",
"*	c #850E85",
"=	c #9E6E9E",
"-	c #912991",
";	c #A860A8",
">	c #400040",
",	c #000000",
"'	c #450D45",
")	c #04E9F9",
"!	c #1CE0F2",
"~	c #CAB2CA",
"{	c #8B1B8B",
"       .+@####@+.       ",
"      $%########%$      ",
"    &%############%&    ",
"   @################@   ",
"  &#######%$$%#######&  ",
"  %#####@+    +@#####*& ",
" $####*=        =*##-;  ",
".%###>,,,      ,,,'$.   ",
"+####,))),    ,))),     ",
"@###,!)))),,,,))))),    ",
"###,,))))),)),))))),,   ",
"##,),)))))),,)))))),),  ",
"#,)),))))),  ,))))),)), ",
",)),%,))),    ,))), ,)),",
",),##+,,,      ,,,   ,),",
",),##@            ~  ,),",
",,,###=          ={$.,,,",
" $####*=        =*##-   ",
"  %#####@+    +@#####*& ",
"  &#######%$$%#######&  ",
"   @################@   ",
"    &%############%&    ",
"      $%########%$      ",
"       .+@####@+.       "};
