/* XPM */
static char *clip[]={
"24 24 5 1",
". c #0000ff",
"b c #3f3fbf",
"c c #7f7f7f",
"a c #bfbf3f",
"# c #ffff00",
"........................",
".######################.",
".#########ab..c########.",
".########b....c########.",
".#######b...bbca#######.",
".######a...ccccba######.",
".######b..ccccccb######.",
".######...cc..bccc#####.",
".######..bcc..bccc#####.",
".######..bccbbccca#####.",
".######..bccccccb######.",
".######..bcbbbbc#######.",
".######..bcb..c########.",
".######..bcb..c########.",
".######..c#c..c########.",
".######..c#c..c########.",
".######..c#a..c########.",
".######b..##acc########.",
".######a..b###c########.",
".#######b...ccc########.",
".########b....c########.",
".#########ab..c########.",
".######################.",
"........................"};
